<?xml version="1.0" encoding="UTF-8" standalone="no"?>
<svg width="259px" height="65px" viewBox="0 0 259 65" version="1.1" xmlns="http://www.w3.org/2000/svg" xmlns:xlink="http://www.w3.org/1999/xlink">
    <!-- Generator: Sketch 3.8.3 (29802) - http://www.bohemiancoding.com/sketch -->
    <title>Logo</title>
    <desc>Created with Sketch.</desc>
    <defs>
        <linearGradient x1="50%" y1="100%" x2="50%" y2="3.061617e-15%" id="linearGradient-1">
            <stop stop-color="#1E88E5" offset="0%"></stop>
            <stop stop-color="#03A9F4" offset="100%"></stop>
        </linearGradient>
        <linearGradient x1="50%" y1="0%" x2="50%" y2="100%" id="linearGradient-2">
            <stop stop-color="#004379" offset="0%"></stop>
            <stop stop-color="#01579B" offset="100%"></stop>
        </linearGradient>
        <circle id="path-3" cx="32.5" cy="32.5" r="24.05"></circle>
    </defs>
    <g id="Page-1" stroke="none" stroke-width="1" fill="none" fill-rule="evenodd">
        <g id="Main-page" transform="translate(-182.000000, -163.000000)">
            <g id="Navigation-bar" transform="translate(149.000000, 151.000000)">
                <g id="Logo" transform="translate(33.000000, 10.000000)">
                    <g id="Logotype" transform="translate(85.000000, 0.000000)" font-size="56" font-family="SCRIPT1-Script-Casual-Normal, SCRIPT1 Script Casual" letter-spacing="0.600000024" fill="#FFFFFF" font-weight="normal">
                        <text id="Entrée-(Script1)">
                            <tspan x="0" y="55">Entrée</tspan>
                        </text>
                    </g>
                    <g id="Logo-image" transform="translate(0.000000, 2.000000)">
                        <path d="M19.5802677,62.3306571 C17.515544,64.0001351 14.8870375,65 12.025,65 C5.38377588,65 0,59.6162241 0,52.975 C0,50.1129625 0.999864924,47.484456 2.66934293,45.4197323 C0.951991278,41.459925 0,37.0911372 0,32.5 C0,14.5507456 14.5507456,0 32.5,0 C50.4492544,0 65,14.5507456 65,32.5 C65,50.4492544 50.4492544,65 32.5,65 C27.9088628,65 23.540075,64.0480087 19.5802677,62.3306571 Z" id="Base-circles" fill="url(#linearGradient-1)"></path>
                        <mask id="mask-4" fill="white">
                            <use xlink:href="#path-3"></use>
                        </mask>
                        <use id="Inner-circle" fill="url(#linearGradient-2)" xlink:href="#path-3"></use>
                        <path d="M41.0376025,19.3933985 C41.0376025,19.3933985 39.8897865,19.1535098 37.5251698,18.9901719 L37.5220544,33.1106675 C37.5238346,33.9010984 36.8873954,34.5375377 36.1054207,34.5344222 C35.3176602,34.5362025 34.6812209,33.8997632 34.6812209,33.1102225 L34.6830012,18.8566532 C34.10442,18.840631 33.4853382,18.8375155 32.8230853,18.8321748 C32.0891773,18.8317297 31.4180232,18.8459717 30.7922654,18.8602137 L30.7904852,32.985605 C30.78915,33.7729204 30.1562712,34.4057992 29.3720712,34.4040189 C28.5825305,34.4040189 27.9460912,33.7711402 27.9478715,32.9833797 L27.9478715,18.9986281 C25.6357722,19.161966 24.4812802,19.3880577 24.4812802,19.3880577 C24.4812802,19.3880577 23.8800009,30.5702512 23.8782206,36.9738094 C23.8782206,44.1224021 30.4095117,44.1691336 30.4081766,46.9841535 C30.4046161,49.789827 29.1842549,61.4486823 29.1873703,68.0307106 C29.1824746,80.0905671 30.7762432,80.3740719 32.7327376,80.3758521 C34.6936827,80.3794126 36.2807753,80.0927924 36.2807753,68.0307106 C36.2825555,61.453578 35.0635295,49.796948 35.0604141,46.9872689 C35.0604141,44.1744744 41.59037,44.2234313 41.5939305,36.9769248 C41.5952657,32.764409 41.0376025,19.3933985 41.0376025,19.3933985 L41.0376025,19.3933985 Z" id="Fork" fill="#FFFFFF" mask="url(#mask-4)"></path>
                    </g>
                </g>
            </g>
        </g>
    </g>
</svg>