<?xml version="1.0" encoding="UTF-8" standalone="no"?>
<svg width="29px" height="29px" viewBox="0 0 29 29" version="1.1" xmlns="http://www.w3.org/2000/svg" xmlns:xlink="http://www.w3.org/1999/xlink">
    <!-- Generator: Sketch 3.8.3 (29802) - http://www.bohemiancoding.com/sketch -->
    <title>Entree logo</title>
    <desc>Created with Sketch.</desc>
    <defs></defs>
    <g id="Page-1" stroke="none" stroke-width="1" fill="none" fill-rule="evenodd">
        <g id="Main-page" transform="translate(-1655.000000, -181.000000)" fill="#FFFFFF">
            <g id="Navigation-bar" transform="translate(149.000000, 151.000000)">
                <g id="Partner-button" transform="translate(1494.000000, 22.000000)">
                    <g id="Contents" transform="translate(12.000000, 8.000000)">
                        <path d="M15.881927,28.1637532 C22.7562374,27.25063 28.0620438,21.321301 28.0620438,14.1428571 C28.0620438,6.33197282 21.7801413,0 14.0310219,0 C6.28190248,0 0,6.33197282 0,14.1428571 C0,16.1407586 0.410997245,18.0419014 1.15241874,19.7650703 C0.431665435,20.6635655 0,21.8073991 0,23.0528571 C0,25.9428843 2.32430392,28.2857143 5.1914781,28.2857143 C6.42708766,28.2857143 7.56187635,27.8506082 8.45326661,27.1241101 C9.8216835,27.7223171 11.3032323,28.1071229 12.8565889,28.2368741 C12.9473273,25.343937 13.3650123,21.2374631 13.3663807,20.1593833 C13.3669572,18.9443279 10.5472437,18.924157 10.5472437,15.8385887 C10.5480123,13.0746019 10.8075988,8.2479985 10.8075988,8.2479985 C10.8075988,8.2479985 11.3060204,8.15040986 12.3042086,8.07990783 L12.3042086,14.1161877 C12.30344,14.4562111 12.578206,14.7293824 12.9190695,14.7293824 C13.2576272,14.7301508 13.530856,14.4569795 13.5314324,14.1171482 L13.532201,8.02016361 C13.8023555,8.01401629 14.0921087,8.00786898 14.4089542,8.00806108 C14.6948645,8.01036632 14.9621368,8.01171105 15.211924,8.01862678 L15.2111555,14.1709372 C15.2111555,14.511729 15.4859214,14.7864372 15.8260163,14.7856688 C16.1636134,14.7870135 16.4383793,14.5123053 16.4376108,14.1711293 L16.4389558,8.07625786 C17.4598169,8.14675989 17.9553564,8.25030374 17.9553564,8.25030374 C17.9553564,8.25030374 18.1961128,14.0216727 18.1955364,15.8399334 L16.0791143,24.9872965 L18.1955364,15.8399334 C18.1939992,18.9677645 15.3748622,18.9466331 15.3748622,20.160728 C15.3760494,21.2311969 15.7862269,25.2768488 15.881927,28.1637532 Z" id="Entree-logo"></path>
                    </g>
                </g>
            </g>
        </g>
    </g>
</svg>